<svg id="Group_50314" data-name="Group 50314" xmlns="http://www.w3.org/2000/svg" width="25.599" height="24.733" viewBox="0 0 25.599 24.733">
  <g id="Group_50315" data-name="Group 50315">
    <path id="Path_54358" data-name="Path 54358" d="M141.179,150.845H125.194a2.27,2.27,0,0,1,.624,1.578v13.089a2.282,2.282,0,0,1-.554,1.5h15.915a1.544,1.544,0,0,0,1.54-1.54V152.385a1.544,1.544,0,0,0-1.54-1.54Zm-9.224,13.043a.767.767,0,0,1-.77.77h-.77a.767.767,0,0,1-.77-.77v-.77a.772.772,0,0,1,.77-.77h.77a.772.772,0,0,1,.77.77Zm-2.318-3.819v-.77a.762.762,0,0,1,.77-.77h.77a.767.767,0,0,1,.77.77v.77a.772.772,0,0,1-.77.77h-.77a.767.767,0,0,1-.77-.77m6.206,3.819a.767.767,0,0,1-.77.77h-.77a.767.767,0,0,1-.77-.77v-.77a.772.772,0,0,1,.77-.77h.77a.772.772,0,0,1,.77.77Zm-2.333-3.85v-.77a.772.772,0,0,1,.77-.77h.77a.772.772,0,0,1,.77.77v.77a.767.767,0,0,1-.77.77h-.77a.767.767,0,0,1-.77-.77m6.183,3.85a.767.767,0,0,1-.77.77h-.77a.767.767,0,0,1-.77-.77v-.77a.772.772,0,0,1,.77-.77h.77a.772.772,0,0,1,.77.77Zm-2.333-3.8v-.77a.767.767,0,0,1,.77-.77h.77a.767.767,0,0,1,.77.77v.77a.772.772,0,0,1-.77.77h-.77a.772.772,0,0,1-.77-.77m1.525-3.888h-8.5a1.524,1.524,0,1,1,0-3.049h8.5a1.524,1.524,0,1,1,0,3.049" transform="translate(-117.12 -142.322)" fill="#fff"/>
    <rect id="Rectangle_4169" data-name="Rectangle 4169" width="6.93" height="16.169" rx="2" transform="translate(0 8.564)" fill="#fff"/>
    <path id="Path_54359" data-name="Path 54359" d="M164.256,6.976h11.5a.772.772,0,0,0,.77-.77V4.088a.193.193,0,0,0-.192-.193h-2.864a1.544,1.544,0,0,1-1.54-1.54V.192A.192.192,0,0,0,171.74,0h-7.484a.772.772,0,0,0-.77.77V6.206a.772.772,0,0,0,.77.77Z" transform="translate(-153.248)" fill="#fff"/>
    <path id="Path_54360" data-name="Path 54360" d="M340.41,5.61h2.34a.192.192,0,0,0,.116-.346l-2.34-1.776a.192.192,0,0,0-.309.153V5.418a.192.192,0,0,0,.192.192" transform="translate(-319.994 -3.254)" fill="#fff"/>
  </g>
</svg>
