<svg id="Group_50312" data-name="Group 50312" xmlns="http://www.w3.org/2000/svg" xmlns:xlink="http://www.w3.org/1999/xlink" width="24.663" height="24.733" viewBox="0 0 24.663 24.733">
  <defs>
    <clipPath id="clip-path">
      <rect id="Rectangle_4168" data-name="Rectangle 4168" width="24.663" height="24.733" fill="#fff"/>
    </clipPath>
  </defs>
  <g id="Group_50311" data-name="Group 50311" clip-path="url(#clip-path)">
    <path id="Path_54357" data-name="Path 54357" d="M6.842,4.473,8.286,5.917a1.729,1.729,0,0,1,0,2.677l-1.8,1.8c-.176.141-.176.282-.106.493a10.388,10.388,0,0,0,1.655,2.641,18.361,18.361,0,0,0,4.578,4.156c.387.247.81.423,1.2.634a.346.346,0,0,0,.493-.106c.6-.634,1.2-1.233,1.831-1.831a1.7,1.7,0,0,1,2.606,0c.986.986,1.972,1.972,2.958,2.923a1.778,1.778,0,0,1,0,2.677c-.564.564-1.162,1.092-1.655,1.69a3.3,3.3,0,0,1-2.818,1.057,12.064,12.064,0,0,1-4.508-1.3,24.563,24.563,0,0,1-8.1-6.339A21.994,21.994,0,0,1,.679,10.495,9.378,9.378,0,0,1,.009,6.832,3,3,0,0,1,.96,4.825c.634-.6,1.233-1.233,1.831-1.831a1.752,1.752,0,0,1,2.606,0c.457.493.95.987,1.444,1.48Zm12.82,7.5A8.581,8.581,0,0,0,17.3,7.4a8.678,8.678,0,0,0-4.825-2.43l-.282,1.9a6.527,6.527,0,0,1,3.733,1.867,6.322,6.322,0,0,1,1.831,3.557Zm5-.352A14.185,14.185,0,0,0,12.688,0l-.282,1.9a12.243,12.243,0,0,1,10.354,10Z" transform="translate(0)" fill="#fff"/>
  </g>
</svg>
