<svg id="Group_50952" data-name="Group 50952" xmlns="http://www.w3.org/2000/svg" xmlns:xlink="http://www.w3.org/1999/xlink" width="89" height="70.418" viewBox="0 0 89 70.418">
  <defs>
    <clipPath id="clip-path">
      <rect id="Rectangle_4304" data-name="Rectangle 4304" width="89" height="70.418" fill="none"/>
    </clipPath>
  </defs>
  <g id="Group_50951" data-name="Group 50951" clip-path="url(#clip-path)">
    <path id="Path_54402" data-name="Path 54402" d="M88.024.021c4.36-.036,8.723-.007,13.084-.016A25.933,25.933,0,0,1,105.564.2a30.36,30.36,0,0,1,13.876,6.77,28.032,28.032,0,0,1,8.852,14.781,22.356,22.356,0,0,1,.776,5.037c.007.445.065.89.073,1.337a29.692,29.692,0,0,1-.89,7.571,33.587,33.587,0,0,1-3.722,8.452A28.738,28.738,0,0,1,112.9,54.269a26.134,26.134,0,0,1-12.846,2.759,32.1,32.1,0,0,1-11.308-2.481,33.7,33.7,0,0,1-7.055-4.656,26.461,26.461,0,0,1-5.626-6.47A31.737,31.737,0,0,1,73.3,37.183a26.125,26.125,0,0,1-1.368-8.541q4.255,0,8.51,0a20.612,20.612,0,0,0,5.417,13.551A20.993,20.993,0,0,0,93.1,47.107a23.967,23.967,0,0,0,3.475,1.077q.01-19.909,0-39.821c-2.852,0-5.7.02-8.556-.011q.01-4.165,0-8.332m17.146,48.01a21.648,21.648,0,0,0,8.078-4.051,17.189,17.189,0,0,0,4.454-5.173A19.694,19.694,0,0,0,120.518,26.2,20.216,20.216,0,0,0,105.172,8.917q-.01,19.555,0,39.113" transform="translate(-55.927 0)" fill="#1e3d89"/>
    <path id="Path_54403" data-name="Path 54403" d="M1.257,297.252c.169,0,.34-.009.509-.011.02.914.018,1.829,0,2.743a1.677,1.677,0,0,1-.481,1.326A1.373,1.373,0,0,1,0,301.3c.065-.1.191-.307.254-.409.376.169.934.082.966-.416.091-1.07.011-2.151.038-3.226" transform="translate(0 -231.112)" fill="#1e3d89"/>
    <path id="Path_54404" data-name="Path 54404" d="M34.865,297.263c.663,0,1.324,0,1.987,0l.027.476c-.494,0-.99.007-1.484,0,0,.385,0,.77,0,1.157l1.428,0c0,.16,0,.32.007.481-.478,0-.957,0-1.435,0,0,.681.007,1.364-.016,2.047-.171,0-.343-.007-.512-.007,0-1.382,0-2.763,0-4.145" transform="translate(-27.107 -231.128)" fill="#1e3d89"/>
    <path id="Path_54405" data-name="Path 54405" d="M47.224,297.011a2.147,2.147,0,1,1-1.528,1.533,2.239,2.239,0,0,1,1.528-1.533m.136.452a1.663,1.663,0,1,0,2.069,1.686,1.681,1.681,0,0,0-2.069-1.686" transform="translate(-35.471 -230.866)" fill="#1e3d89"/>
    <path id="Path_54406" data-name="Path 54406" d="M67.876,297.021a2.164,2.164,0,0,1,2.705,1.835,2.157,2.157,0,0,1-4.236.763,2.175,2.175,0,0,1,1.531-2.6m.147.452a1.667,1.667,0,0,0-1.21,1.368,1.646,1.646,0,1,0,3.27.32,1.674,1.674,0,0,0-2.06-1.689" transform="translate(-51.531 -230.877)" fill="#1e3d89"/>
    <path id="Path_54407" data-name="Path 54407" d="M111.462,297.261a4.44,4.44,0,0,1,1.726.211,1.183,1.183,0,0,1-.078,2.025,2.763,2.763,0,0,1-1.117.182c0,.581.007,1.161-.02,1.742l-.514-.02c.011-1.379,0-2.761,0-4.14m.534.458c-.009.509-.009,1.019.007,1.528a2.571,2.571,0,0,0,.961-.22.7.7,0,0,0-.136-1.195,4.048,4.048,0,0,0-.832-.113" transform="translate(-86.663 -231.128)" fill="#1e3d89"/>
    <path id="Path_54408" data-name="Path 54408" d="M123.231,297.245c.162,0,.323,0,.485,0,.024.917-.042,1.835.04,2.75.038.436.3.948.792.974a.94.94,0,0,0,1.135-.814c.078-.968,0-1.942.051-2.912.167,0,.336.007.507.011-.007.863.011,1.729,0,2.59a1.653,1.653,0,0,1-.632,1.359,1.476,1.476,0,0,1-1.8-.051,1.689,1.689,0,0,1-.578-1.453c-.009-.816,0-1.635,0-2.452" transform="translate(-95.809 -231.112)" fill="#1e3d89"/>
    <path id="Path_54409" data-name="Path 54409" d="M153.43,297.252c.167,0,.336-.009.507-.011.047,1.224,0,2.449.024,3.675.416,0,.832,0,1.25,0,0,.158,0,.316,0,.474-.592,0-1.186,0-1.778,0,0-1.382,0-2.761,0-4.142" transform="translate(-119.296 -231.112)" fill="#1e3d89"/>
    <path id="Path_54410" data-name="Path 54410" d="M162.752,297.258l.492-.007c.011,1.382,0,2.768,0,4.149-.167,0-.334,0-.5.009.007-1.384,0-2.768,0-4.151" transform="translate(-126.542 -231.12)" fill="#1e3d89"/>
    <path id="Path_54411" data-name="Path 54411" d="M168.405,297.7a2.24,2.24,0,0,1,2.665-.454c0,.2,0,.4.007.594a1.682,1.682,0,0,0-2.1-.024,1.7,1.7,0,0,0,.091,2.687,1.641,1.641,0,0,0,2-.107q-.007.3-.007.614a2.227,2.227,0,0,1-2.363-.151,2.162,2.162,0,0,1-.3-3.159" transform="translate(-130.513 -230.922)" fill="#1e3d89"/>
    <path id="Path_54412" data-name="Path 54412" d="M192.944,297.241a2.3,2.3,0,0,1,2.1,0c0,.2,0,.4,0,.6a1.666,1.666,0,0,0-2.1-.02,1.7,1.7,0,0,0,.1,2.674,1.622,1.622,0,0,0,2-.109c0,.207,0,.412,0,.618a2.208,2.208,0,0,1-2.881-.685,2.184,2.184,0,0,1,.785-3.077" transform="translate(-149.143 -230.917)" fill="#1e3d89"/>
    <path id="Path_54413" data-name="Path 54413" d="M209.077,297.014a2.145,2.145,0,1,1-1.491,1.4,2.26,2.26,0,0,1,1.491-1.4m.145.452a1.671,1.671,0,0,0-.178,3.161,1.659,1.659,0,1,0,.178-3.161" transform="translate(-161.316 -230.87)" fill="#1e3d89"/>
    <path id="Path_54414" data-name="Path 54414" d="M228,300.944c.285-1.426.538-2.861.85-4.283.476,1.07.937,2.145,1.406,3.217.483-1.068.923-2.156,1.422-3.217.287,1.426.581,2.852.841,4.285-.176,0-.349,0-.523,0-.167-.881-.3-1.766-.481-2.643-.5.865-.825,1.82-1.255,2.723-.425-.939-.823-1.891-1.266-2.821-.129.914-.318,1.822-.461,2.734-.133,0-.4,0-.534,0" transform="translate(-177.276 -230.662)" fill="#1e3d89"/>
    <path id="Path_54415" data-name="Path 54415" d="M250,297.261a4.32,4.32,0,0,1,1.72.211,1.188,1.188,0,0,1,.024,1.976,2.47,2.47,0,0,1-1.215.234c0,.581.007,1.164-.027,1.746-.171-.009-.34-.018-.505-.024.007-1.384,0-2.763,0-4.142m.534.458q-.013.764,0,1.528a2.538,2.538,0,0,0,.963-.218.7.7,0,0,0-.129-1.192,3.949,3.949,0,0,0-.839-.118" transform="translate(-194.381 -231.128)" fill="#1e3d89"/>
    <path id="Path_54416" data-name="Path 54416" d="M260.072,296.8c.741,1.373,1.322,2.834,1.987,4.249-.18,0-.363,0-.541,0-.154-.349-.314-.694-.476-1.037-.632,0-1.264,0-1.893,0-.154.345-.314.69-.467,1.037l-.552,0c.636-1.424,1.288-2.839,1.942-4.254m.022,1.068c-.242.554-.489,1.108-.723,1.664q.728.01,1.455,0c-.24-.556-.489-1.108-.732-1.662" transform="translate(-200.703 -230.77)" fill="#1e3d89"/>
    <path id="Path_54417" data-name="Path 54417" d="M277.15,296.431c1.032,1.083,2.071,2.158,3.1,3.246q0-1.532,0-3.064c.169,0,.34,0,.512.007,0,1.426,0,2.854,0,4.28-1.05-1.05-2.053-2.147-3.092-3.208-.011,1.023,0,2.049-.007,3.072-.171,0-.343,0-.509,0-.009-1.442,0-2.885-.009-4.332" transform="translate(-215.491 -230.483)" fill="#1e3d89"/>
    <path id="Path_54418" data-name="Path 54418" d="M294.86,297.268c.185,0,.374-.007.561-.007.36.574.65,1.192,1.046,1.746.334-.583.663-1.166,1.006-1.744.182,0,.367,0,.552.007-.376.814-.912,1.542-1.3,2.349-.06.592-.007,1.192-.025,1.789l-.521,0c-.016-.6.029-1.2-.016-1.8-.387-.805-.912-1.54-1.306-2.343" transform="translate(-229.261 -231.128)" fill="#1e3d89"/>
    <path id="Path_54419" data-name="Path 54419" d="M319.958,297.258c.167,0,.336,0,.507,0,.033,1.224,0,2.445.02,3.669.416,0,.832,0,1.248,0,0,.158,0,.318,0,.478-.592,0-1.184,0-1.778,0q-.007-2.076,0-4.154" transform="translate(-248.773 -231.125)" fill="#1e3d89"/>
    <path id="Path_54420" data-name="Path 54420" d="M333.92,300.9c.274-1.431.556-2.861.836-4.289.492,1.068.937,2.154,1.426,3.224.472-1.075.923-2.158,1.413-3.226.287,1.428.574,2.859.841,4.294-.176,0-.354,0-.527.007q-.244-1.368-.485-2.739c-.423.937-.841,1.875-1.241,2.825-.423-.952-.854-1.9-1.261-2.861-.131.925-.334,1.842-.469,2.768-.133,0-.4,0-.532,0" transform="translate(-259.631 -230.623)" fill="#1e3d89"/>
    <path id="Path_54421" data-name="Path 54421" d="M355.921,297.253l.494,0c0,1.384.011,2.768,0,4.151-.167,0-.331,0-.492,0,0-1.382-.011-2.765,0-4.149" transform="translate(-276.733 -231.12)" fill="#1e3d89"/>
    <path id="Path_54422" data-name="Path 54422" d="M360.206,297.261q1.228,0,2.463,0c0,.158,0,.318,0,.476-.327,0-.65,0-.972-.007-.016,1.224-.007,2.449,0,3.675l-.53,0c0-1.224.007-2.447,0-3.669l-1,0c.009-.158.022-.316.036-.474" transform="translate(-280.041 -231.128)" fill="#1e3d89"/>
    <path id="Path_54423" data-name="Path 54423" d="M373.235,297.271c.739,0,1.479,0,2.22,0q0,.237,0,.474-.848.01-1.691,0c-.007.385-.007.77-.007,1.157.552,0,1.106,0,1.66,0,0,.156,0,.311,0,.467-.554.007-1.108.009-1.662,0q-.01.781,0,1.562.848,0,1.7,0c0,.158,0,.318,0,.476-.739,0-1.479,0-2.218,0q-.007-2.069,0-4.147" transform="translate(-290.197 -231.136)" fill="#1e3d89"/>
    <path id="Path_54424" data-name="Path 54424" d="M10.734,297.259a3.724,3.724,0,0,1,2.474.518,2.056,2.056,0,0,1-.251,3.29,4.376,4.376,0,0,1-2.216.347c-.013-1.384-.007-2.77-.007-4.156m.514.463c0,1.075,0,2.149,0,3.224a3.153,3.153,0,0,0,1.52-.34,1.629,1.629,0,0,0,.171-2.418,3.083,3.083,0,0,0-1.693-.465" transform="translate(-8.345 -231.126)" fill="#1e3d89"/>
    <path id="Path_54425" data-name="Path 54425" d="M88,301.412c0-1.386-.007-2.77,0-4.151a3.72,3.72,0,0,1,2.481.529,2.058,2.058,0,0,1-.171,3.226,4.036,4.036,0,0,1-2.312.4m.514-3.684c0,1.072,0,2.142,0,3.215a2.511,2.511,0,0,0,1.778-.545,1.7,1.7,0,0,0,0-2.122,2.727,2.727,0,0,0-1.778-.547" transform="translate(-68.419 -231.128)" fill="#1e3d89"/>
    <path id="Path_54426" data-name="Path 54426" d="M139.954,297.261c.61.02,1.362-.044,1.806.465a1.07,1.07,0,0,1-.194,1.479,1.14,1.14,0,0,1,.743.761,1.047,1.047,0,0,1-.574,1.257,4.456,4.456,0,0,1-1.782.189q0-2.076,0-4.151m.518.458q-.01.7,0,1.4a5.15,5.15,0,0,0,.661-.1.712.712,0,0,0,.145-1.121,1.659,1.659,0,0,0-.808-.18m0,1.786q0,.714,0,1.431c.394-.024.865.069,1.179-.234a.749.749,0,0,0,.111-.8c-.283-.418-.848-.374-1.29-.4" transform="translate(-108.817 -231.128)" fill="#1e3d89"/>
    <path id="Path_54427" data-name="Path 54427" d="M329.27,301.408c0-1.382,0-2.765,0-4.147l.494.007q0,2.072,0,4.145c-.165,0-.331,0-.5,0" transform="translate(-256.016 -231.128)" fill="#1e3d89"/>
    <path id="Path_54428" data-name="Path 54428" d="M385.735,301.4q0-2.076,0-4.151a3.756,3.756,0,0,1,2.474.525,2.055,2.055,0,0,1-.247,3.286,4.209,4.209,0,0,1-2.229.34m.514-3.684c0,1.072,0,2.142,0,3.215a2.36,2.36,0,0,0,1.844-.618,1.716,1.716,0,0,0-.071-2.049,2.746,2.746,0,0,0-1.775-.547" transform="translate(-299.918 -231.12)" fill="#1e3d89"/>
  </g>
</svg>
