<svg id="Group_50955" data-name="Group 50955" xmlns="http://www.w3.org/2000/svg" xmlns:xlink="http://www.w3.org/1999/xlink" width="101" height="79.913" viewBox="0 0 101 79.913">
  <defs>
    <clipPath id="clip-path">
      <rect id="Rectangle_4304" data-name="Rectangle 4304" width="101" height="79.912" fill="#fff"/>
    </clipPath>
  </defs>
  <g id="Group_50951" data-name="Group 50951" clip-path="url(#clip-path)">
    <path id="Path_54402" data-name="Path 54402" d="M90.194.023c4.948-.04,9.9-.008,14.848-.018A29.43,29.43,0,0,1,110.1.223a34.454,34.454,0,0,1,15.747,7.683A31.812,31.812,0,0,1,135.891,24.68a25.371,25.371,0,0,1,.881,5.716c.008.5.073,1.01.083,1.517a33.7,33.7,0,0,1-1.01,8.592,38.116,38.116,0,0,1-4.224,9.591,32.613,32.613,0,0,1-13.2,11.49,29.658,29.658,0,0,1-14.578,3.131A36.425,36.425,0,0,1,91.009,61.9,38.24,38.24,0,0,1,83,56.617a30.029,30.029,0,0,1-6.385-7.342A36.016,36.016,0,0,1,73.49,42.2,29.647,29.647,0,0,1,71.937,32.5q4.828,0,9.657,0a23.391,23.391,0,0,0,6.148,15.378,23.823,23.823,0,0,0,8.215,5.577A27.2,27.2,0,0,0,99.9,54.681q.011-22.594,0-45.19c-3.237,0-6.473.023-9.71-.013q.011-4.726,0-9.455m19.458,54.483a24.566,24.566,0,0,0,9.167-4.6,19.507,19.507,0,0,0,5.054-5.87,22.35,22.35,0,0,0,3.2-14.305A22.942,22.942,0,0,0,109.654,10.12q-.011,22.192,0,44.387" transform="translate(-53.77 0)" fill="#fff"/>
    <path id="Path_54403" data-name="Path 54403" d="M1.426,297.254c.192-.005.386-.01.578-.013.023,1.038.02,2.075.005,3.113a1.9,1.9,0,0,1-.545,1.5A1.558,1.558,0,0,1,0,301.851c.073-.116.217-.348.288-.464.427.192,1.06.093,1.1-.472.1-1.214.013-2.441.043-3.661" transform="translate(0 -222.196)" fill="#fff"/>
    <path id="Path_54404" data-name="Path 54404" d="M34.865,297.263c.752,0,1.5,0,2.255,0l.03.54c-.56.005-1.123.008-1.684,0,0,.437,0,.874,0,1.313l1.621-.005c0,.182,0,.364.008.545-.543,0-1.086.005-1.628,0,0,.773.008,1.548-.018,2.323-.194,0-.389-.008-.581-.008,0-1.568-.005-3.136,0-4.7" transform="translate(-26.061 -222.211)" fill="#fff"/>
    <path id="Path_54405" data-name="Path 54405" d="M47.44,297.022a2.437,2.437,0,1,1-1.734,1.74,2.54,2.54,0,0,1,1.734-1.74m.154.513a1.887,1.887,0,1,0,2.348,1.914,1.908,1.908,0,0,0-2.348-1.914" transform="translate(-34.102 -221.96)" fill="#fff"/>
    <path id="Path_54406" data-name="Path 54406" d="M68.092,297.032a2.456,2.456,0,0,1,3.07,2.083,2.448,2.448,0,0,1-4.807.866,2.468,2.468,0,0,1,1.737-2.949m.167.513a1.891,1.891,0,0,0-1.373,1.553,1.868,1.868,0,1,0,3.711.364,1.9,1.9,0,0,0-2.338-1.916" transform="translate(-49.543 -221.97)" fill="#fff"/>
    <path id="Path_54407" data-name="Path 54407" d="M111.463,297.261a5.04,5.04,0,0,1,1.959.24,1.343,1.343,0,0,1-.088,2.3,3.135,3.135,0,0,1-1.267.207c0,.659.008,1.318-.023,1.977l-.583-.023c.013-1.565,0-3.133,0-4.7m.606.52c-.01.578-.01,1.156.008,1.734a2.918,2.918,0,0,0,1.091-.25.79.79,0,0,0-.154-1.356,4.593,4.593,0,0,0-.944-.129" transform="translate(-83.32 -222.211)" fill="#fff"/>
    <path id="Path_54408" data-name="Path 54408" d="M123.232,297.246c.184,0,.366,0,.55,0,.028,1.04-.048,2.083.045,3.121.043.495.341,1.076.9,1.106a1.066,1.066,0,0,0,1.288-.924c.088-1.1,0-2.2.058-3.3.189,0,.381.008.576.013-.008.98.013,1.962,0,2.939a1.875,1.875,0,0,1-.717,1.543,1.675,1.675,0,0,1-2.045-.058,1.917,1.917,0,0,1-.656-1.649c-.01-.927,0-1.856.005-2.782" transform="translate(-92.113 -222.196)" fill="#fff"/>
    <path id="Path_54409" data-name="Path 54409" d="M153.43,297.254c.189-.005.381-.01.576-.013.053,1.389,0,2.78.028,4.171.472,0,.944,0,1.419,0,0,.179-.005.359-.005.538-.672,0-1.346.005-2.017,0,.005-1.568,0-3.133,0-4.7" transform="translate(-114.693 -222.196)" fill="#fff"/>
    <path id="Path_54410" data-name="Path 54410" d="M162.753,297.259l.558-.008c.013,1.568.005,3.141.005,4.709-.189,0-.379.005-.566.01.008-1.57,0-3.141,0-4.711" transform="translate(-121.66 -222.204)" fill="#fff"/>
    <path id="Path_54411" data-name="Path 54411" d="M168.479,297.793a2.543,2.543,0,0,1,3.025-.515c0,.225,0,.449.008.674a1.909,1.909,0,0,0-2.378-.028,1.929,1.929,0,0,0,.1,3.05,1.862,1.862,0,0,0,2.275-.121q-.008.345-.008.7a2.527,2.527,0,0,1-2.681-.172,2.453,2.453,0,0,1-.343-3.585" transform="translate(-125.478 -222.013)" fill="#fff"/>
    <path id="Path_54412" data-name="Path 54412" d="M193.1,297.275a2.608,2.608,0,0,1,2.378,0c0,.225,0,.449,0,.677a1.89,1.89,0,0,0-2.388-.023,1.928,1.928,0,0,0,.114,3.035,1.841,1.841,0,0,0,2.275-.124c0,.235,0,.467,0,.7a2.506,2.506,0,0,1-3.269-.778,2.478,2.478,0,0,1,.891-3.492" transform="translate(-143.389 -222.008)" fill="#fff"/>
    <path id="Path_54413" data-name="Path 54413" d="M209.293,297.026a2.434,2.434,0,1,1-1.692,1.588,2.564,2.564,0,0,1,1.692-1.588m.164.513a1.9,1.9,0,0,0-.2,3.588,1.882,1.882,0,1,0,.2-3.588" transform="translate(-155.093 -221.963)" fill="#fff"/>
    <path id="Path_54414" data-name="Path 54414" d="M228,301.521c.323-1.618.611-3.247.964-4.86.54,1.214,1.063,2.434,1.6,3.651.548-1.212,1.048-2.446,1.613-3.651.326,1.618.659,3.237.954,4.863-.2,0-.4,0-.593,0-.189-1-.346-2-.545-3-.566.982-.937,2.065-1.424,3.09-.482-1.065-.934-2.146-1.437-3.2-.146,1.038-.361,2.068-.523,3.1-.151,0-.454,0-.606,0" transform="translate(-170.437 -221.763)" fill="#fff"/>
    <path id="Path_54415" data-name="Path 54415" d="M250,297.261a4.9,4.9,0,0,1,1.952.24,1.348,1.348,0,0,1,.028,2.242,2.8,2.8,0,0,1-1.379.265c0,.659.008,1.32-.03,1.982-.194-.01-.386-.02-.573-.028.008-1.57.005-3.136,0-4.7m.606.52q-.015.867.005,1.734a2.881,2.881,0,0,0,1.093-.247.793.793,0,0,0-.146-1.353,4.482,4.482,0,0,0-.952-.134" transform="translate(-186.882 -222.211)" fill="#fff"/>
    <path id="Path_54416" data-name="Path 54416" d="M260.334,296.8c.841,1.558,1.5,3.217,2.255,4.822-.2,0-.412,0-.613.005-.174-.4-.356-.788-.54-1.177-.717,0-1.434,0-2.149,0-.174.391-.356.783-.53,1.177l-.626,0c.722-1.616,1.462-3.221,2.2-4.827m.025,1.212c-.275.629-.555,1.257-.821,1.888q.826.011,1.651,0c-.273-.631-.555-1.257-.831-1.886" transform="translate(-192.96 -221.867)" fill="#fff"/>
    <path id="Path_54417" data-name="Path 54417" d="M277.15,296.431c1.171,1.23,2.35,2.449,3.517,3.684q0-1.738,0-3.477c.192,0,.386,0,.581.008.005,1.618-.005,3.239.005,4.858-1.192-1.192-2.33-2.436-3.509-3.641-.013,1.161,0,2.325-.008,3.487-.194,0-.389,0-.578,0-.01-1.636,0-3.275-.01-4.916" transform="translate(-207.178 -221.591)" fill="#fff"/>
    <path id="Path_54418" data-name="Path 54418" d="M294.86,297.269c.21-.005.424-.008.636-.008.409.651.737,1.353,1.187,1.982.379-.661.752-1.323,1.141-1.979.207,0,.417,0,.626.008-.427.924-1.035,1.75-1.472,2.666-.068.672-.008,1.353-.028,2.03l-.591,0c-.018-.682.033-1.363-.018-2.043-.439-.914-1.035-1.747-1.482-2.659" transform="translate(-220.416 -222.211)" fill="#fff"/>
    <path id="Path_54419" data-name="Path 54419" d="M319.959,297.258c.189,0,.381,0,.576,0,.038,1.389,0,2.775.023,4.163.472,0,.944,0,1.416,0,0,.179,0,.361,0,.543-.672,0-1.343,0-2.017.005q-.008-2.356,0-4.714" transform="translate(-239.176 -222.208)" fill="#fff"/>
    <path id="Path_54420" data-name="Path 54420" d="M333.92,301.481c.311-1.623.631-3.247.949-4.868.558,1.212,1.063,2.444,1.618,3.658.535-1.219,1.048-2.449,1.6-3.661.326,1.621.651,3.244.954,4.873-.2,0-.4,0-.6.008q-.276-1.553-.55-3.108c-.48,1.063-.954,2.128-1.409,3.206-.48-1.081-.969-2.159-1.431-3.247-.149,1.05-.379,2.09-.533,3.141-.151,0-.454,0-.6,0" transform="translate(-249.615 -221.725)" fill="#fff"/>
    <path id="Path_54421" data-name="Path 54421" d="M355.922,297.254l.56,0c0,1.57.013,3.141,0,4.711-.189,0-.376,0-.558,0,0-1.568-.013-3.138,0-4.709" transform="translate(-266.057 -222.204)" fill="#fff"/>
    <path id="Path_54422" data-name="Path 54422" d="M360.21,297.261q1.394,0,2.795,0c0,.179,0,.361.005.54-.371,0-.737,0-1.1-.008-.018,1.389-.008,2.78-.005,4.171l-.6,0c0-1.389.008-2.777,0-4.163l-1.131,0c.01-.179.025-.359.04-.538" transform="translate(-269.237 -222.211)" fill="#fff"/>
    <path id="Path_54423" data-name="Path 54423" d="M373.236,297.271c.838,0,1.679,0,2.52,0q0,.269,0,.538-.962.011-1.919,0c-.008.437-.008.874-.008,1.313.626-.005,1.255-.005,1.883.005,0,.177,0,.353,0,.53-.629.008-1.257.01-1.886,0q-.011.886,0,1.772.962,0,1.924,0c0,.179,0,.361,0,.54-.838,0-1.679,0-2.517.005q-.008-2.348,0-4.706" transform="translate(-279.001 -222.219)" fill="#fff"/>
    <path id="Path_54424" data-name="Path 54424" d="M10.734,297.259a4.226,4.226,0,0,1,2.807.588,2.333,2.333,0,0,1-.285,3.734,4.965,4.965,0,0,1-2.515.394c-.015-1.57-.008-3.143-.008-4.716m.583.525c0,1.219,0,2.439,0,3.658a3.578,3.578,0,0,0,1.724-.386,1.848,1.848,0,0,0,.194-2.744,3.5,3.5,0,0,0-1.921-.528" transform="translate(-8.023 -222.209)" fill="#fff"/>
    <path id="Path_54425" data-name="Path 54425" d="M88,301.972c0-1.573-.008-3.143,0-4.711a4.221,4.221,0,0,1,2.815.6,2.335,2.335,0,0,1-.194,3.661,4.58,4.58,0,0,1-2.623.449m.583-4.181c0,1.217,0,2.431,0,3.648a2.849,2.849,0,0,0,2.017-.619,1.925,1.925,0,0,0,0-2.409,3.094,3.094,0,0,0-2.017-.621" transform="translate(-65.78 -222.211)" fill="#fff"/>
    <path id="Path_54426" data-name="Path 54426" d="M139.954,297.261c.692.023,1.545-.05,2.05.528a1.214,1.214,0,0,1-.22,1.679,1.294,1.294,0,0,1,.843.863,1.188,1.188,0,0,1-.651,1.426,5.056,5.056,0,0,1-2.022.215q0-2.356,0-4.711m.588.52q-.011.8,0,1.591a5.843,5.843,0,0,0,.75-.114.808.808,0,0,0,.164-1.272,1.883,1.883,0,0,0-.916-.2m0,2.027q0,.81,0,1.623c.447-.028.982.078,1.338-.265a.849.849,0,0,0,.126-.9c-.321-.475-.962-.424-1.464-.454" transform="translate(-104.619 -222.211)" fill="#fff"/>
    <path id="Path_54427" data-name="Path 54427" d="M329.27,301.967c.005-1.568-.005-3.138.005-4.706l.56.008q0,2.352,0,4.7c-.187-.005-.376-.005-.563-.005" transform="translate(-246.139 -222.211)" fill="#fff"/>
    <path id="Path_54428" data-name="Path 54428" d="M385.735,301.962q0-2.356,0-4.711a4.262,4.262,0,0,1,2.807.6,2.332,2.332,0,0,1-.28,3.729,4.777,4.777,0,0,1-2.53.386m.583-4.181c0,1.217,0,2.431,0,3.648a2.678,2.678,0,0,0,2.093-.7,1.947,1.947,0,0,0-.081-2.325,3.116,3.116,0,0,0-2.015-.621" transform="translate(-288.347 -222.204)" fill="#fff"/>
  </g>
</svg>
