<?xml version="1.0" encoding="utf-8"?>
<!-- Generator: Adobe Illustrator 26.0.0, SVG Export Plug-In . SVG Version: 6.00 Build 0)  -->
<svg version="1.1" id="Layer_1" xmlns="http://www.w3.org/2000/svg" xmlns:xlink="http://www.w3.org/1999/xlink" x="0px" y="0px"
	 viewBox="0 0 428.72 354.5" style="enable-background:new 0 0 428.72 354.5;" xml:space="preserve">
<style type="text/css">
	.st0{fill:#1E3D89;}
</style>
<g>
	<g>
		<g>
			<path class="st0" d="M158.61,19.08c19.6-0.16,39.21-0.03,58.81-0.07c6.68,0.06,13.41-0.35,20.03,0.86
				c23.16,3.97,44.35,15.66,62.37,30.43c20.28,16.87,33.39,41.1,39.79,66.44c1.75,7.43,3.47,14.97,3.49,22.64
				c0.03,2,0.29,4,0.33,6.01c-0.32,11.42-0.76,22.99-4,34.03c-4.1,13.23-9.14,26.32-16.73,37.99
				c-12.56,19.84-31.37,35.14-52.29,45.51c-17.72,9.13-37.89,13.1-57.74,12.4c-17.41-0.69-34.78-4.3-50.83-11.15
				c-11.42-5.56-22.05-12.71-31.71-20.93c-9.88-8.29-18.58-18.05-25.29-29.08c-5.25-8.8-9.15-18.34-12.39-28.04
				c-3.93-12.39-6.49-25.34-6.15-38.39c12.75,0.01,25.5,0.01,38.25,0c0.53,22.29,8.98,44.6,24.35,60.91
				c9.21,9.45,20.24,17.22,32.54,22.09c5.05,2.09,10.32,3.54,15.62,4.84c0.03-59.66,0.02-119.33,0.01-178.99
				c-12.82,0-25.64,0.09-38.46-0.05C158.64,44.05,158.66,31.56,158.61,19.08z M235.68,234.88c13.19-3.48,25.7-9.63,36.31-18.21
				c7.93-6.51,15.23-14.1,20.02-23.25c10.76-16.64,14.62-37.09,12.66-56.66c-1.57-14.05-6.7-27.62-14.43-39.44
				c-12.33-19.18-32.48-32.87-54.55-38.25C235.66,117.67,235.71,176.28,235.68,234.88z"/>
		</g>
		<path class="st0" d="M19.99,316.28c0.76-0.02,1.53-0.04,2.29-0.05c0.09,4.11,0.08,8.22,0.02,12.33c-0.14,2.09-0.31,4.62-2.16,5.96
			c-1.77,1.15-3.98,0.75-5.8-0.03c0.29-0.46,0.86-1.38,1.14-1.84c1.69,0.76,4.2,0.37,4.34-1.87
			C20.23,325.97,19.87,321.11,19.99,316.28z"/>
		<path class="st0" d="M49.21,316.26c2.98,0.01,5.95,0,8.93-0.01c0.04,0.71,0.08,1.43,0.12,2.14c-2.22,0.02-4.45,0.03-6.67,0
			c-0.01,1.73-0.01,3.46-0.01,5.2c2.14-0.01,4.28-0.01,6.42-0.02c0.01,0.72,0.01,1.44,0.03,2.16c-2.15,0.01-4.3,0.02-6.45-0.01
			c-0.01,3.06,0.03,6.13-0.07,9.2c-0.77-0.01-1.54-0.03-2.3-0.03C49.22,328.68,49.19,322.47,49.21,316.26z"/>
		<g>
			<path class="st0" d="M67.17,316.3c5.74-1.81,12.18,3,12.23,8.98c0.45,5.88-5.48,11.04-11.24,9.89c-5.52-0.62-9.4-6.69-7.86-11.98
				C61.33,320.02,63.8,317.08,67.17,316.3z M67.78,318.33c-2.59,0.78-4.84,2.92-5.33,5.64c-0.95,3.92,1.88,8.17,5.79,8.95
				c4.27,1.02,8.69-2.71,8.84-7.01C77.47,321.18,72.39,316.9,67.78,318.33z"/>
		</g>
		<g>
			<path class="st0" d="M87.81,316.3c5.48-1.68,11.71,2.54,12.16,8.25c0.75,4.85-2.94,9.74-7.73,10.56
				c-4.88,1.09-10.29-2.18-11.31-7.13C79.54,323.07,82.92,317.52,87.81,316.3z M88.47,318.33c-2.78,0.79-5.12,3.21-5.44,6.15
				c-0.71,4,2.46,8.09,6.46,8.55c4.12,0.6,8.09-3.03,8.24-7.11C98.1,321.18,93.08,316.92,88.47,318.33z"/>
		</g>
		<g>
			<path class="st0" d="M125.81,316.25c2.59,0.05,5.32-0.12,7.76,0.95c3.4,1.78,3.1,7.55-0.35,9.1c-1.55,0.81-3.34,0.7-5.02,0.82
				c0,2.61,0.03,5.22-0.09,7.83c-0.77-0.03-1.55-0.06-2.31-0.09C125.85,328.66,125.81,322.45,125.81,316.25z M128.21,318.31
				c-0.04,2.29-0.04,4.58,0.03,6.87c1.45-0.25,3.03-0.19,4.32-0.99c1.9-1.21,1.59-4.68-0.61-5.37
				C130.73,318.44,129.46,318.43,128.21,318.31z"/>
		</g>
		<path class="st0" d="M137.6,316.25c0.73-0.01,1.45-0.01,2.18-0.01c0.11,4.12-0.19,8.25,0.18,12.36c0.17,1.96,1.35,4.26,3.56,4.38
			c2.38,0.52,4.93-1.18,5.1-3.66c0.35-4.35,0.01-8.73,0.23-13.09c0.75,0.01,1.51,0.03,2.28,0.05c-0.03,3.88,0.05,7.77-0.01,11.64
			c-0.07,2.29-0.85,4.8-2.84,6.11c-2.34,1.75-5.88,1.7-8.1-0.23c-2.14-1.42-2.56-4.17-2.6-6.53
			C137.54,323.6,137.58,319.92,137.6,316.25z"/>
		<path class="st0" d="M167.77,316.28c0.75-0.02,1.51-0.04,2.28-0.05c0.21,5.5,0.01,11.01,0.11,16.52c1.87-0.01,3.74,0,5.62,0.01
			c-0.01,0.71-0.02,1.42-0.02,2.13c-2.66,0.01-5.33,0.02-7.99,0.01C167.79,328.69,167.77,322.49,167.77,316.28z"/>
		<path class="st0" d="M177.1,316.27c0.73-0.01,1.47-0.02,2.21-0.03c0.05,6.21,0.02,12.44,0.02,18.65c-0.75,0.01-1.5,0.02-2.24,0.04
			C177.12,328.71,177.08,322.49,177.1,316.27z"/>
		<path class="st0" d="M184.66,319.14c2.9-3.36,8.1-4.03,11.98-2.04c-0.01,0.89,0.01,1.78,0.03,2.67c-2.71-2.05-6.77-2.45-9.42-0.11
			c-3.8,2.9-3.69,9.5,0.41,12.08c2.62,2.18,6.47,1.45,9.01-0.48c-0.02,0.91-0.03,1.83-0.03,2.76c-3.34,1.66-7.62,1.73-10.62-0.68
			C181.48,330.25,180.93,323.08,184.66,319.14z"/>
		<path class="st0" d="M211.22,317.11c2.92-1.53,6.5-1.49,9.42,0.01c-0.01,0.89-0.01,1.78-0.01,2.68c-2.7-2.1-6.82-2.48-9.46-0.09
			c-3.72,2.94-3.64,9.43,0.45,12.02c2.6,2.19,6.5,1.49,9.01-0.49c-0.01,0.93-0.01,1.85,0.01,2.78c-4.34,2.38-10.26,1.17-12.95-3.08
			C204.63,326.42,206.33,319.6,211.22,317.11z"/>
		<g>
			<path class="st0" d="M229.02,316.3c5.74-1.79,12.16,2.97,12.22,8.95c0.57,6.15-5.89,11.36-11.8,9.8
				c-5.47-0.97-8.99-7.25-7.12-12.46C223.52,319.7,225.84,317.03,229.02,316.3z M229.67,318.33c-2.12,0.69-4.13,2.15-4.92,4.32
				c-1.71,3.71,0.35,8.42,4.12,9.89c4.25,1.93,9.48-1.43,10-5.93C239.79,321.64,234.53,316.82,229.67,318.33z"/>
		</g>
		<path class="st0" d="M242.34,334.9c1.28-6.41,2.42-12.86,3.82-19.25c2.14,4.81,4.21,9.64,6.32,14.46
			c2.17-4.8,4.15-9.69,6.39-14.46c1.29,6.41,2.61,12.82,3.78,19.26c-0.79,0-1.57,0-2.35,0.01c-0.75-3.96-1.37-7.94-2.16-11.88
			c-2.24,3.89-3.71,8.18-5.64,12.24c-1.91-4.22-3.7-8.5-5.69-12.68c-0.58,4.11-1.43,8.19-2.07,12.29
			C244.14,334.88,242.94,334.9,242.34,334.9z"/>
		<g>
			<path class="st0" d="M264.35,316.25c2.58,0.04,5.31-0.13,7.73,0.95c3.26,1.68,3.18,7.07,0.11,8.88
				c-1.63,1.03-3.62,0.94-5.46,1.05c0.01,2.61,0.03,5.23-0.12,7.85c-0.77-0.04-1.53-0.08-2.27-0.11
				C264.37,328.65,264.36,322.45,264.35,316.25z M266.75,318.31c-0.04,2.29-0.03,4.58,0.02,6.87c1.45-0.25,3.04-0.17,4.33-0.98
				c1.9-1.2,1.57-4.63-0.58-5.36C269.3,318.45,268.01,318.43,266.75,318.31z"/>
		</g>
		<g>
			<path class="st0" d="M281.2,315.79c3.33,6.17,5.94,12.74,8.93,19.1c-0.81,0-1.63,0.01-2.43,0.02c-0.69-1.57-1.41-3.12-2.14-4.66
				c-2.84,0-5.68,0.01-8.51-0.01c-0.69,1.55-1.41,3.1-2.1,4.66c-0.84,0-1.67,0.01-2.48,0.01
				C275.33,328.51,278.26,322.15,281.2,315.79z M281.3,320.59c-1.09,2.49-2.2,4.98-3.25,7.48c2.18,0.03,4.36,0.03,6.54-0.01
				C283.51,325.56,282.39,323.08,281.3,320.59z"/>
		</g>
		<path class="st0" d="M291.49,315.42c4.64,4.87,9.31,9.7,13.93,14.59c-0.01-4.59-0.01-9.18,0.01-13.77
			c0.76,0.01,1.53,0.01,2.3,0.03c0.02,6.41-0.02,12.83,0.02,19.24c-4.72-4.72-9.23-9.65-13.9-14.42c-0.05,4.6,0,9.21-0.03,13.81
			c-0.77-0.01-1.54-0.01-2.29-0.01C291.49,328.41,291.52,321.92,291.49,315.42z"/>
		<path class="st0" d="M309.2,316.28c0.83-0.02,1.68-0.03,2.52-0.03c1.62,2.58,2.92,5.36,4.7,7.85c1.5-2.62,2.98-5.24,4.52-7.84
			c0.82,0,1.65,0.01,2.48,0.03c-1.69,3.66-4.1,6.93-5.83,10.56c-0.27,2.66-0.03,5.36-0.11,8.04c-0.59,0-1.76,0.01-2.34,0.01
			c-0.07-2.7,0.13-5.4-0.07-8.09C313.33,323.19,310.97,319.89,309.2,316.28z"/>
		<path class="st0" d="M334.31,316.25c0.75,0,1.51-0.01,2.28,0c0.15,5.5,0.01,10.99,0.09,16.49c1.87,0,3.74,0,5.61,0.01
			c-0.01,0.71,0,1.43,0.01,2.15c-2.66,0-5.32-0.01-7.99,0.02C334.29,328.7,334.29,322.47,334.31,316.25z"/>
		<path class="st0" d="M348.26,334.89c1.23-6.43,2.5-12.86,3.76-19.28c2.21,4.8,4.21,9.68,6.41,14.49c2.12-4.83,4.15-9.7,6.35-14.5
			c1.29,6.42,2.58,12.85,3.78,19.3c-0.79,0-1.59,0.01-2.37,0.03c-0.73-4.1-1.45-8.21-2.18-12.31c-1.9,4.21-3.78,8.43-5.58,12.7
			c-1.9-4.28-3.84-8.55-5.67-12.86c-0.59,4.16-1.5,8.28-2.11,12.44C350.05,334.89,348.85,334.89,348.26,334.89z"/>
		<path class="st0" d="M370.28,316.25c0.73,0,1.47-0.01,2.22-0.01c-0.01,6.22,0.05,12.44-0.01,18.66c-0.75-0.01-1.49-0.01-2.21,0
			C370.27,328.69,370.23,322.47,370.28,316.25z"/>
		<path class="st0" d="M374.67,316.25c3.68,0.01,7.37,0.01,11.07,0.01c-0.01,0.71,0,1.43,0.02,2.14c-1.47-0.01-2.92-0.01-4.37-0.03
			c-0.07,5.5-0.03,11.01-0.02,16.52c-0.6,0-1.79-0.01-2.38-0.01c0.01-5.5,0.03-11,0-16.49c-1.51,0-3-0.01-4.48-0.01
			C374.55,317.67,374.61,316.96,374.67,316.25z"/>
		<path class="st0" d="M387.59,316.26c3.32,0.01,6.65,0,9.98,0c-0.01,0.71-0.01,1.42,0,2.13c-2.54,0.03-5.07,0.03-7.6-0.01
			c-0.03,1.73-0.03,3.46-0.03,5.2c2.48-0.02,4.97-0.02,7.46,0.02c-0.01,0.7,0,1.4,0.01,2.1c-2.49,0.03-4.98,0.04-7.47,0.01
			c-0.03,2.34-0.03,4.68,0.01,7.02c2.54-0.01,5.08-0.01,7.62,0.01c-0.01,0.71-0.01,1.43-0.01,2.14c-3.32,0.01-6.65,0-9.97,0.02
			C387.57,328.7,387.56,322.48,387.59,316.26z"/>
		<g>
			<path class="st0" d="M25.08,316.25c3.77,0.01,8.05-0.24,11.12,2.33c4.66,3.59,4.12,12-1.13,14.79c-3,1.79-6.62,1.49-9.96,1.56
				C25.05,328.71,25.08,322.48,25.08,316.25z M27.39,318.33c0,4.83-0.01,9.66,0.01,14.49c2.31-0.23,4.83-0.17,6.83-1.53
				c3.54-2.31,3.69-8.01,0.77-10.87C32.83,318.74,30.02,318.55,27.39,318.33z"/>
		</g>
		<g>
			<path class="st0" d="M102.35,334.91c-0.01-6.23-0.03-12.45,0.01-18.66c3.78,0.03,8.08-0.23,11.15,2.38
				c4.5,3.49,4.1,11.52-0.77,14.5C109.69,335.18,105.85,334.9,102.35,334.91z M104.66,318.35c0,4.82-0.01,9.63,0.01,14.45
				c2.78-0.17,5.95-0.27,7.99-2.45c2.24-2.61,2.22-6.93-0.01-9.54C110.53,318.76,107.43,318.55,104.66,318.35z"/>
		</g>
		<g>
			<path class="st0" d="M154.3,316.25c2.74,0.09,6.12-0.2,8.12,2.09c1.65,1.98,1.09,5.08-0.87,6.65c1.51,0.66,3,1.7,3.34,3.42
				c0.79,2.22-0.52,4.7-2.58,5.65c-2.51,1.16-5.34,0.77-8.01,0.85C154.29,328.69,154.29,322.47,154.3,316.25z M156.63,318.31
				c-0.03,2.1-0.03,4.2,0.01,6.3c0.98-0.15,2-0.17,2.97-0.45c1.87-0.85,2.09-3.69,0.65-5.04
				C159.2,318.37,157.84,318.45,156.63,318.31z M156.62,326.34c-0.01,2.14-0.01,4.28,0,6.43c1.77-0.11,3.89,0.31,5.3-1.05
				c1.01-0.87,0.87-2.44,0.5-3.58C161.15,326.26,158.61,326.46,156.62,326.34z"/>
		</g>
		<path class="st0" d="M343.61,334.89c0.02-6.21-0.02-12.43,0.02-18.64c0.56,0.01,1.67,0.02,2.22,0.03
			c0.01,6.21,0.01,12.42-0.01,18.63C345.1,334.89,344.35,334.89,343.61,334.89z"/>
		<g>
			<path class="st0" d="M400.08,334.9c-0.01-6.22-0.01-12.44,0.01-18.66c3.76,0.05,8.05-0.23,11.12,2.36
				c4.66,3.57,4.11,11.98-1.11,14.77C407.09,335.16,403.45,334.92,400.08,334.9z M402.39,318.34c0.01,4.82-0.01,9.63,0.01,14.45
				c2.92-0.07,6.27-0.36,8.29-2.78c1.92-2.66,1.83-6.71-0.32-9.21C408.26,318.72,405.15,318.59,402.39,318.34z"/>
		</g>
	</g>
</g>
</svg>
